<svg width="1600" height="500" viewBox="0 0 1600 500" fill="none" xmlns="http://www.w3.org/2000/svg" role="img" aria-labelledby="title desc">
  <title id="title">Caprika technical editorial banner</title>
  <desc id="desc">A dark technical GitHub profile banner for Caprika, agent-native developer.</desc>
  <defs>
    <linearGradient id="bg" x1="0" y1="0" x2="1600" y2="500" gradientUnits="userSpaceOnUse">
      <stop stop-color="#050607"/>
      <stop offset="0.62" stop-color="#0A0D10"/>
      <stop offset="1" stop-color="#101419"/>
    </linearGradient>
    <pattern id="grid" width="48" height="48" patternUnits="userSpaceOnUse">
      <path d="M48 0H0V48" stroke="#1C242B" stroke-width="1"/>
    </pattern>
  </defs>
  <rect width="1600" height="500" fill="url(#bg)"/>
  <rect width="1600" height="500" fill="url(#grid)" opacity="0.72"/>
  <path d="M0 86H1600M0 414H1600M96 0V500M1504 0V500" stroke="#26313A" stroke-width="2" opacity="0.65"/>
  <rect x="96" y="88" width="1408" height="326" rx="0" stroke="#26313A" stroke-width="2"/>

  <text x="142" y="176" fill="#8B949E" font-family="ui-monospace, SFMono-Regular, Menlo, Consolas, monospace" font-size="24" letter-spacing="0">github://alchemistklk</text>
  <text x="138" y="282" fill="#F8FAFC" font-family="Inter, ui-sans-serif, system-ui, -apple-system, BlinkMacSystemFont, Segoe UI, sans-serif" font-size="104" font-weight="800" letter-spacing="0">Caprika</text>
  <text x="144" y="336" fill="#C9D1D9" font-family="Inter, ui-sans-serif, system-ui, -apple-system, BlinkMacSystemFont, Segoe UI, sans-serif" font-size="32" letter-spacing="0">Agent-native developer</text>
  <text x="144" y="378" fill="#7DD3FC" font-family="ui-monospace, SFMono-Regular, Menlo, Consolas, monospace" font-size="22" letter-spacing="0">local-first AI tools / open-source systems</text>

  <g transform="translate(842 124)">
    <rect x="0" y="0" width="610" height="252" rx="12" fill="#0D1117" stroke="#30363D" stroke-width="2" opacity="0.92"/>
    <path d="M38 62H306M38 104H512M38 146H446M38 188H562" stroke="#26313A" stroke-width="12" stroke-linecap="round"/>
    <path d="M38 62H184M38 104H248M38 146H142M38 188H318" stroke="#7DD3FC" stroke-width="12" stroke-linecap="round" opacity="0.82"/>
    <rect x="438" y="34" width="126" height="42" rx="21" fill="#111827" stroke="#30363D"/>
    <text x="470" y="61" fill="#8B949E" font-family="ui-monospace, SFMono-Regular, Menlo, Consolas, monospace" font-size="15">main</text>
    <circle cx="526" cy="55" r="6" fill="#34D399"/>
    <rect x="392" y="170" width="172" height="42" rx="21" fill="#111827" stroke="#30363D"/>
    <text x="426" y="197" fill="#8B949E" font-family="ui-monospace, SFMono-Regular, Menlo, Consolas, monospace" font-size="15">open source</text>
  </g>
</svg>
